<?xml version="1.0" encoding="utf-8"?>
<!-- Generator: Adobe Illustrator 24.2.3, SVG Export Plug-In . SVG Version: 6.00 Build 0)  -->
<svg version="1.1" id="Layer_1" xmlns="http://www.w3.org/2000/svg" xmlns:xlink="http://www.w3.org/1999/xlink" x="0px" y="0px"
	 viewBox="0 0 75 75" style="enable-background:new 0 0 75 75;" xml:space="preserve">
<style type="text/css">
	.st0{fill-rule:evenodd;clip-rule:evenodd;fill:url(#SVGID_1_);}
</style>
<g id="Layer_1_1_">
</g>
<g id="Layer_3">
</g>
<linearGradient id="SVGID_1_" gradientUnits="userSpaceOnUse" x1="4.4241" y1="1006.8952" x2="71.1241" y2="1006.8952" gradientTransform="matrix(1 0 0 1 0 -968)">
	<stop  offset="0" style="stop-color:#0060B0"/>
	<stop  offset="0.3153" style="stop-color:#0080CA"/>
	<stop  offset="0.3711" style="stop-color:#0086CF"/>
	<stop  offset="0.4107" style="stop-color:#0A8DBB"/>
	<stop  offset="0.5105" style="stop-color:#229C8E"/>
	<stop  offset="0.611" style="stop-color:#35A968"/>
	<stop  offset="0.7107" style="stop-color:#45B34B"/>
	<stop  offset="0.8093" style="stop-color:#4FBA37"/>
	<stop  offset="0.9064" style="stop-color:#56BF2A"/>
	<stop  offset="1" style="stop-color:#58C026"/>
</linearGradient>
<path class="st0" d="M65.5,19c-7.6-0.6-27.2-0.6-27.5,15.2c-3.5-5.6-8.6-6.6-13-5.9c-6.1,1-11.8,5.8-15.3,9.4
	c-3.6,2.2-5.3,4.5-5.3,4.5c12.1,4.6,19.2,9.1,24.5,17.2c3.3-3.5,7.5-6.1,12.3-7.2c0.4-0.1,0.8-0.2,1.2-0.3c1.6-0.3,3.1-0.5,4.7-0.5
	c2.9,0,5.7,0.5,8.3,1.5C57.5,40.4,63.6,29,71,18.3C69.2,18.5,67.4,18.7,65.5,19z"/>
</svg>
