<?xml version="1.0" encoding="utf-8"?>
<!-- Generator: Adobe Illustrator 24.2.1, SVG Export Plug-In . SVG Version: 6.00 Build 0)  -->
<svg version="1.1" id="Layer_1" xmlns="http://www.w3.org/2000/svg" xmlns:xlink="http://www.w3.org/1999/xlink" x="0px" y="0px"
	 viewBox="0 0 500 110" style="enable-background:new 0 0 500 110;" xml:space="preserve">
<style type="text/css">
	.st0{fill-rule:evenodd;clip-rule:evenodd;fill:url(#SVGID_1_);}
	.st1{fill:#FFFFFF;}
	.st2{opacity:0.5;fill:#FFFFFF;}
</style>
<g>
	
		<linearGradient id="SVGID_1_" gradientUnits="userSpaceOnUse" x1="130.5816" y1="77.3" x2="203.2816" y2="77.3" gradientTransform="matrix(1 0 0 -1 0 112)">
		<stop  offset="0" style="stop-color:#0060B0"/>
		<stop  offset="0.3153" style="stop-color:#0080CA"/>
		<stop  offset="0.3711" style="stop-color:#0086CF"/>
		<stop  offset="0.4107" style="stop-color:#0A8DBB"/>
		<stop  offset="0.5105" style="stop-color:#229C8E"/>
		<stop  offset="0.611" style="stop-color:#35A968"/>
		<stop  offset="0.7107" style="stop-color:#45B34B"/>
		<stop  offset="0.8093" style="stop-color:#4FBA37"/>
		<stop  offset="0.9064" style="stop-color:#56BF2A"/>
		<stop  offset="1" style="stop-color:#58C026"/>
	</linearGradient>
	<path class="st0" d="M197.2,13c-8.3-0.6-29.6-0.6-30,16.6c-3.8-6.1-9.4-7.2-14.2-6.4c-6.6,1.1-12.9,6.3-16.7,10.2
		c-3.9,2.4-5.8,4.9-5.8,4.9c13.2,5,20.9,9.9,26.7,18.8c3.6-3.8,8.2-6.6,13.4-7.9c0.4-0.1,0.9-0.2,1.3-0.3c1.7-0.3,3.4-0.5,5.1-0.5
		c3.2,0,6.2,0.5,9.1,1.6c2.3-13.7,9-26.1,17.1-37.7C201.2,12.5,199.2,12.7,197.2,13z"/>
	<g>
		<path class="st1" d="M0.7,61.6h17.7c4.4,0,7.8,1.2,10,3.4c1.7,1.7,2.6,3.9,2.6,6.5v0.1c0,4.3-2.3,6.7-5,8.2
			c4.4,1.7,7.1,4.3,7.1,9.4v0.1c0,7-5.7,10.5-14.3,10.5H0.7V61.6z M16.6,77c3.7,0,6-1.2,6-4v-0.1c0-2.5-2-3.9-5.5-3.9H8.9v8H16.6z
			 M18.9,92.4c3.7,0,5.9-1.3,5.9-4.1v-0.1c0-2.6-1.9-4.1-6.2-4.1H8.9v8.4h10V92.4z"/>
		<path class="st1" d="M36.4,85.3L36.4,85.3c0-8.4,5.9-15.3,14.4-15.3C60.6,70,65,77.6,65,85.9c0,0.7-0.1,1.4-0.1,2.2H44.6
			c0.8,3.8,3.4,5.7,7.1,5.7c2.8,0,4.8-0.9,7.1-3l4.7,4.2c-2.7,3.4-6.6,5.4-11.9,5.4C42.9,100.4,36.4,94.3,36.4,85.3z M57,82.9
			c-0.5-3.7-2.7-6.2-6.2-6.2c-3.4,0-5.7,2.5-6.3,6.2H57z"/>
		<path class="st1" d="M71.2,91.5V77.6h-3.5v-7.1h3.5V63h8.3v7.5h6.9v7.1h-6.9v12.5c0,1.9,0.8,2.8,2.7,2.8c1.5,0,2.9-0.4,4.1-1v6.6
			c-1.7,1-3.8,1.7-6.5,1.7C74.7,100.2,71.2,98.2,71.2,91.5z"/>
		<path class="st1" d="M92.5,91.5V77.6H89v-7.1h3.5V63h8.3v7.5h6.9v7.1h-6.9v12.5c0,1.9,0.8,2.8,2.7,2.8c1.5,0,2.9-0.4,4.1-1v6.6
			c-1.7,1-3.8,1.7-6.5,1.7C95.9,100.2,92.5,98.2,92.5,91.5z"/>
		<path class="st1" d="M110.1,85.3L110.1,85.3c0-8.4,5.9-15.3,14.4-15.3c9.8,0,14.2,7.6,14.2,15.9c0,0.7-0.1,1.4-0.1,2.2h-20.3
			c0.8,3.8,3.4,5.7,7.1,5.7c2.8,0,4.8-0.9,7.1-3l4.7,4.2c-2.7,3.4-6.6,5.4-11.9,5.4C116.6,100.4,110.1,94.3,110.1,85.3z M130.7,82.9
			c-0.5-3.7-2.7-6.2-6.2-6.2c-3.4,0-5.7,2.5-6.3,6.2H130.7z"/>
		<path class="st1" d="M143.6,70.6h8.3v5.9c1.7-4,4.4-6.6,9.3-6.4v8.7h-0.4c-5.5,0-8.9,3.3-8.9,10.3v10.8h-8.3L143.6,70.6
			L143.6,70.6z"/>
		<path class="st1" d="M162.9,61.6h9l7.9,25.8l8.6-25.9h7.2l8.6,25.9l7.9-25.8h8.8l-13,38.4h-7.3L192,75.1l-8.6,24.9h-7.3
			L162.9,61.6z"/>
		<path class="st1" d="M219.8,85.3L219.8,85.3c0-8.5,6.8-15.3,15.9-15.3c9,0,15.7,6.7,15.7,15.1v0.1c0,8.4-6.8,15.2-15.9,15.2
			C226.5,100.4,219.8,93.7,219.8,85.3z M243.2,85.3L243.2,85.3c0-4.4-3.1-8.2-7.7-8.2c-4.7,0-7.6,3.7-7.6,8v0.1
			c0,4.3,3.1,8.1,7.7,8.1C240.4,93.3,243.2,89.6,243.2,85.3z"/>
		<path class="st1" d="M256,70.6h8.3v5.9c1.7-4,4.4-6.6,9.3-6.4v8.7h-0.4c-5.5,0-8.9,3.3-8.9,10.3v10.8H256V70.6z"/>
		<path class="st1" d="M277.8,60h8.3v39.8h-8.3V60z"/>
		<path class="st1" d="M291.2,85.2L291.2,85.2c0-9.9,6.4-15.2,13.3-15.2c4.4,0,7.1,2,9.1,4.4V60h8.3v39.8h-8.3v-4.2
			c-2,2.7-4.8,4.7-9.1,4.7C297.7,100.3,291.2,95,291.2,85.2z M313.7,85.2L313.7,85.2c0-4.9-3.2-8.2-7.1-8.2s-7.1,3.2-7.1,8.1v0.1
			c0,4.8,3.3,8.1,7.1,8.1S313.7,90.1,313.7,85.2z"/>
		<path class="st2" d="M329.1,61.6h17.1c4.4,0,7.8,1.2,10,3.4c1.7,1.7,2.6,3.8,2.6,6.3v0.1c0,4.6-2.6,7-5.4,8.5
			c4.5,1.5,7.6,4.1,7.6,9.3v0.1c0,6.8-5.6,10.5-14.1,10.5h-17.7V61.6H329.1z M344.9,77.7c4.3,0,7.2-1.7,7.2-5.2v-0.1
			c0-3-2.4-4.8-6.7-4.8h-9.6v10.1H344.9z M346.8,93.8c4.6,0,7.4-1.8,7.4-5.2v-0.1c0-3.2-2.6-5.1-7.8-5.1h-10.6v10.5h11V93.8z"/>
		<path class="st2" d="M364.8,85.5L364.8,85.5c0-8.3,6.5-15.1,15.4-15.1s15.3,6.7,15.3,14.9v0.1c0,8.2-6.5,15-15.4,15
			C371.3,100.4,364.8,93.7,364.8,85.5z M388.8,85.5L388.8,85.5c0-5.2-3.7-9.4-8.8-9.4c-5.3,0-8.7,4.1-8.7,9.2v0.1
			c0,5,3.7,9.3,8.8,9.3C385.5,94.7,388.8,90.5,388.8,85.5z"/>
		<path class="st2" d="M399.2,85.5L399.2,85.5c0-8.3,6.5-15.1,15.4-15.1s15.3,6.7,15.3,14.9v0.1c0,8.2-6.5,15-15.4,15
			C405.7,100.4,399.2,93.7,399.2,85.5z M423.3,85.5L423.3,85.5c0-5.2-3.7-9.4-8.8-9.4c-5.3,0-8.7,4.1-8.7,9.2v0.1
			c0,5,3.7,9.3,8.8,9.3C419.9,94.7,423.3,90.5,423.3,85.5z"/>
		<path class="st2" d="M435.2,60h6.6v23.8L453.7,71h8l-11.4,11.7l11.8,17.1h-7.6l-8.7-12.4l-4,4.2v8.2h-6.6L435.2,60L435.2,60z"/>
		<path class="st2" d="M463.2,96l2.9-4.5c3.1,2.3,6.5,3.5,9.4,3.5c2.8,0,4.5-1.2,4.5-3.1v-0.1c0-2.2-3.1-3-6.4-4
			c-4.2-1.2-9-2.9-9-8.4v-0.1c0-5.4,4.5-8.8,10.2-8.8c3.6,0,7.5,1.3,10.6,3.3l-2.6,4.7c-2.8-1.7-5.7-2.7-8.1-2.7c-2.6,0-4,1.2-4,2.9
			v0.1c0,2.1,3.1,2.9,6.5,4c4.2,1.3,8.9,3.2,8.9,8.4v0.1c0,6-4.7,9-10.7,9C471.3,100.3,466.8,98.8,463.2,96z"/>
	</g>
</g>
<g>
	<path class="st1" d="M489,71.5c0-2.8,2.3-4.9,5-4.9c2.8,0,5,2.1,5,4.9s-2.3,4.9-5,4.9C491.2,76.4,489,74.3,489,71.5z M489.6,71.5
		c0,2.5,1.9,4.4,4.4,4.4s4.4-1.9,4.4-4.4s-1.9-4.4-4.4-4.4C491.5,67.2,489.6,69.1,489.6,71.5z M493.6,72.1h-0.5v2.1h-0.9v-5.6h1.8
		c1.2,0,2,0.7,2,1.7c0,0.8-0.5,1.4-1.3,1.6l2.1,2.3h-1.2L493.6,72.1z M493.1,71.4h0.7c0.8,0,1.2-0.4,1.2-1s-0.5-1-1.2-1H493
		L493.1,71.4L493.1,71.4z"/>
</g>
</svg>
